<svg xmlns="http://www.w3.org/2000/svg" xmlns:xlink="http://www.w3.org/1999/xlink" width="1920" zoomAndPan="magnify" viewBox="0 0 1440 809.999993" height="1080" preserveAspectRatio="xMidYMid meet" version="1.0"><defs><g/><clipPath id="1e32b81cc2"><path d="M 454.074219 142.207031 L 985.972656 142.207031 L 985.972656 404.707031 L 454.074219 404.707031 Z M 454.074219 142.207031 " clip-rule="nonzero"/></clipPath></defs><g clip-path="url(#1e32b81cc2)"><path fill="#2c2c2c" d="M 594.765625 214.949219 L 594.257812 284.859375 C 573.25 288.265625 552.96875 291.597656 535.214844 294.566406 L 529.421875 238.492188 C 547.167969 231.972656 570.132812 223.714844 594.765625 214.949219 Z M 664.457031 190.171875 L 663.878906 273.917969 C 643.601562 277.035156 622.074219 280.4375 601 283.773438 L 594.980469 214.878906 C 617.804688 206.761719 641.929688 198.214844 664.457031 190.171875 Z M 545.574219 323.328125 L 680.761719 309.128906 C 680.761719 309.128906 680.324219 318.183594 668.449219 321.082031 C 656.492188 323.980469 545.066406 326.078125 545.066406 326.078125 Z M 555.5 341.296875 L 671.925781 331.371094 C 671.925781 331.371094 669.535156 339.988281 659.316406 342.527344 C 649.03125 345.058594 555.066406 344.046875 555.066406 344.046875 Z M 488.996094 315.140625 C 488.996094 315.140625 727.921875 279.425781 735.457031 281.015625 C 742.921875 282.753906 743.644531 292.175781 743.644531 292.175781 L 489.503906 317.097656 Z M 832.027344 327.527344 C 832.027344 327.527344 853.328125 329.996094 862.746094 333.617188 C 867.164062 335.28125 869.699219 338.613281 871.21875 341.65625 C 865.0625 340.425781 844.925781 336.296875 845.503906 337.890625 C 846.082031 339.628906 861.226562 346.65625 868.394531 348.464844 C 858.757812 348.679688 837.753906 349.042969 834.996094 347.453125 C 831.375 345.351562 832.027344 327.527344 832.027344 327.527344 Z M 825 394.394531 C 821.8125 391.570312 819.132812 387.734375 816.960938 383.023438 C 792.617188 382.734375 770.738281 382.15625 756.898438 381.792969 C 754.65625 386.71875 751.902344 390.847656 748.714844 393.960938 C 775.519531 394.035156 801.164062 394.179688 825 394.394531 Z M 631.714844 394.25 C 651.929688 394.105469 673.300781 393.960938 695.398438 393.960938 C 692.71875 391.5 690.179688 388.386719 688.078125 384.691406 L 688.003906 384.542969 L 638.160156 384.90625 C 636.421875 388.820312 634.25 392.078125 631.714844 394.25 Z M 546.152344 395.265625 C 562.308594 394.976562 580.207031 394.757812 599.472656 394.542969 C 596.867188 392.367188 594.546875 389.179688 592.8125 385.269531 L 554.199219 385.558594 C 552.027344 389.832031 549.269531 393.238281 546.152344 395.265625 Z M 743.066406 368.75 C 745.746094 368.75 749.582031 368.824219 754.21875 368.898438 L 760.886719 368.898438 L 760.886719 369.042969 C 804.714844 370.199219 900.632812 373.3125 937.148438 366.867188 C 943.015625 365.855469 947.507812 363.679688 949.75 361.074219 C 950.910156 359.550781 950.984375 353.390625 950.40625 345.566406 C 943.160156 346.4375 936.496094 347.019531 936.496094 347.019531 C 942.4375 344.484375 948.015625 341.585938 948.375 340.570312 C 948.664062 339.699219 943.160156 340.425781 937.003906 341.511719 C 939.03125 332.890625 946.925781 329.996094 954.609375 327.382812 C 957.433594 344.484375 960.476562 366.941406 957.433594 370.707031 C 955.480469 373.167969 949.246094 377.152344 939.972656 378.679688 C 926.351562 380.921875 906.210938 382.15625 883.96875 382.734375 C 881.652344 387.804688 878.609375 392.003906 875.132812 394.976562 C 942.148438 395.992188 985.976562 397.65625 985.976562 399.46875 C 985.976562 402.507812 866.441406 405.046875 720.027344 405.046875 C 573.539062 405.046875 454.074219 402.507812 454.074219 399.46875 C 454.074219 398.164062 477.113281 396.929688 515.367188 395.917969 C 511.671875 393.960938 508.414062 390.195312 506.023438 385.269531 L 499.425781 384.980469 L 477.691406 379.035156 L 476.96875 375.414062 L 497.542969 375.125 L 497.542969 360.277344 C 497.542969 359.839844 497.542969 359.550781 497.542969 359.1875 C 497.542969 341.511719 505.21875 327.09375 520.726562 327.164062 C 536.300781 327.164062 543.90625 341.511719 543.90625 359.1875 C 543.90625 359.550781 543.90625 359.984375 543.90625 360.351562 L 543.90625 374.546875 L 635.480469 373.386719 L 678.660156 372.878906 L 678.660156 363.609375 L 550.066406 363.535156 L 550.066406 358.828125 C 587.957031 357.160156 637.148438 355.0625 678.660156 353.535156 L 678.660156 352.160156 C 678.660156 292.539062 736.542969 293.335938 736.542969 353.390625 C 736.542969 358.828125 735.960938 364.042969 734.875 368.898438 L 743.066406 368.898438 Z M 729.300781 367.734375 C 725.679688 378.527344 719.378906 385.632812 712.203125 385.632812 C 704.597656 385.632812 697.933594 377.449219 694.527344 365.34375 C 699.019531 373.167969 705.464844 378.09375 712.636719 378.09375 C 719.085938 378.09375 724.878906 374.183594 729.300781 367.734375 Z M 712.347656 328.542969 C 718.941406 328.542969 724.230469 336.371094 724.445312 346.074219 C 722.128906 340.859375 717.566406 337.308594 712.347656 337.308594 C 707.132812 337.308594 702.566406 340.859375 700.25 346.074219 C 700.46875 336.371094 705.753906 328.542969 712.347656 328.542969 Z M 711.621094 362.015625 C 714.226562 362.015625 716.257812 358.105469 716.257812 353.324219 C 716.257812 348.535156 714.226562 344.628906 711.621094 344.628906 C 709.085938 344.628906 706.988281 348.535156 706.988281 353.324219 C 706.988281 358.105469 709.085938 362.015625 711.621094 362.015625 Z M 521.160156 345.785156 C 525.652344 345.785156 529.351562 351.363281 529.496094 358.464844 C 527.902344 354.621094 524.710938 352.015625 521.160156 352.015625 C 517.535156 352.015625 514.421875 354.621094 512.832031 358.464844 C 512.976562 351.363281 516.597656 345.785156 521.160156 345.785156 Z M 519.859375 331.371094 C 528.699219 331.371094 536.011719 342.597656 537.316406 357.304688 C 534.273438 346.726562 527.613281 339.484375 519.859375 339.484375 C 512.03125 339.484375 505.21875 347.019531 502.25 357.742188 C 503.410156 342.886719 510.800781 331.371094 519.859375 331.371094 Z M 520.652344 369.980469 C 522.464844 369.980469 523.839844 367.15625 523.839844 363.679688 C 523.839844 360.203125 522.464844 357.378906 520.652344 357.378906 C 518.914062 357.378906 517.46875 360.203125 517.46875 363.679688 C 517.46875 367.15625 518.914062 369.980469 520.652344 369.980469 Z M 532.753906 374.183594 C 530.292969 382.011719 526.015625 387.152344 521.089844 387.152344 C 515.800781 387.152344 511.238281 381.214844 508.847656 372.445312 C 511.960938 378.09375 516.378906 381.648438 521.378906 381.648438 C 525.722656 381.648438 529.785156 378.824219 532.753906 374.183594 Z M 710.390625 312.460938 C 720.753906 312.460938 729.300781 324.847656 730.746094 341.003906 C 727.199219 329.410156 719.449219 321.371094 710.460938 321.371094 C 701.261719 321.371094 693.441406 329.699219 690.035156 341.511719 C 691.335938 325.136719 699.960938 312.460938 710.390625 312.460938 Z M 472.765625 295 L 472.117188 257.183594 C 472.1875 246.96875 479.363281 239.074219 490.226562 234.796875 C 539.417969 215.3125 723.503906 149.746094 775.375 142.214844 C 792.253906 178 808.410156 230.523438 823.625 301.15625 C 820.367188 254.429688 811.738281 209.875 799.210938 167.0625 C 805.367188 167.714844 813.050781 168.730469 819.277344 169.8125 C 825.941406 180.390625 835.71875 212.558594 837.390625 220.960938 C 837.753906 222.992188 855.789062 224.585938 854.414062 216.832031 C 854.265625 215.671875 853.832031 213.789062 853.253906 211.324219 L 853.328125 211.324219 C 853.328125 211.324219 853.109375 210.382812 852.675781 208.714844 C 851.296875 203.210938 849.269531 195.96875 846.804688 189.234375 C 846.226562 187.851562 845.71875 186.472656 845.140625 185.171875 C 843.113281 179.8125 840.792969 174.597656 838.332031 170.757812 C 837.753906 169.742188 837.390625 169.164062 837.390625 169.164062 L 837.171875 169.089844 C 835.574219 166.988281 833.984375 165.46875 832.386719 164.746094 C 825.796875 161.84375 807.179688 159.453125 796.601562 158.367188 C 795.082031 153.222656 793.488281 148.152344 791.820312 143.085938 C 824.710938 145.472656 853.6875 150.976562 887.957031 159.019531 C 893.171875 162.351562 898.171875 166.988281 902.878906 172.566406 C 910.851562 173.796875 935.410156 177.855469 941.203125 181.765625 C 942.148438 182.417969 943.160156 183.503906 944.171875 184.882812 L 944.390625 184.953125 C 944.390625 184.953125 950.113281 192.777344 954.53125 201.546875 C 959.101562 210.816406 962.359375 221.105469 963.226562 224.363281 C 964.894531 230.738281 946.78125 229.4375 946.347656 227.769531 C 944.316406 220.746094 933.234375 193.867188 926.136719 185.316406 C 921.0625 184.160156 915.125 183.070312 910.054688 182.203125 C 921.5 199.226562 931.210938 222.40625 938.742188 248.417969 C 922.65625 251.535156 905.992188 254.140625 888.464844 257.6875 C 900.921875 257.253906 920.269531 256.023438 940.191406 253.777344 C 941.203125 257.472656 942.21875 261.171875 943.089844 264.9375 C 922.511719 270.300781 900.921875 274.207031 878.03125 278.191406 C 893.679688 278.046875 920.121094 277.035156 945.261719 274.136719 C 945.769531 276.453125 946.203125 278.769531 946.707031 281.015625 C 920.917969 288.335938 894.042969 292.539062 864.773438 296.738281 C 883.96875 297.175781 919.542969 296.523438 948.953125 292.683594 C 949.246094 294.566406 949.535156 296.378906 949.824219 298.261719 C 919.832031 307.246094 888.683594 310.503906 854.195312 314.851562 C 876.363281 315.792969 920.628906 316.15625 951.851562 311.230469 C 952.140625 313.691406 952.503906 316.226562 952.800781 318.761719 C 921.859375 325.210938 877.597656 327.238281 830.648438 319.851562 C 828.332031 319.488281 826.160156 318.90625 824.132812 318.183594 L 825.363281 359.117188 L 815.441406 313.476562 C 794.863281 298.1875 789.570312 262.183594 765.445312 262.183594 L 769.363281 354.113281 L 810.363281 362.015625 L 761.03125 361.289062 L 757.550781 252.472656 L 757.625 252.472656 L 751.105469 166.265625 L 750.453125 262.402344 C 733.9375 263.777344 704.449219 267.832031 670.695312 272.902344 L 664.457031 190.171875 C 716.039062 171.914062 759.289062 156.773438 759.289062 156.773438 L 501.527344 239.292969 C 482.257812 243.128906 482.257812 259.578125 481.320312 275.222656 C 481.320312 275.222656 485.230469 257.6875 494.71875 251.75 C 495.804688 250.953125 508.992188 245.953125 528.914062 238.636719 L 528.480469 295.652344 C 506.457031 299.347656 488.996094 302.316406 479.871094 303.839844 L 473.199219 359.625 L 472.765625 295 " fill-opacity="1" fill-rule="evenodd"/></g><g fill="#28a745" fill-opacity="1"><g transform="translate(232.086309, 603.650878)"><g><path d="M 7.71875 -118.828125 C 5.488281 -118.828125 3.644531 -119.554688 2.1875 -121.015625 C 0.726562 -122.472656 0 -124.316406 0 -126.546875 C 0 -128.765625 0.726562 -130.566406 2.1875 -131.953125 C 3.644531 -133.347656 5.488281 -134.046875 7.71875 -134.046875 C 9.9375 -134.046875 11.738281 -133.347656 13.125 -131.953125 C 14.519531 -130.566406 15.21875 -128.765625 15.21875 -126.546875 C 15.21875 -124.316406 14.488281 -122.472656 13.03125 -121.015625 C 11.570312 -119.554688 9.800781 -118.828125 7.71875 -118.828125 Z M 7.71875 0 C 5.488281 0 3.644531 -0.832031 2.1875 -2.5 C 0.726562 -4.164062 0 -6.179688 0 -8.546875 L 0 -95.0625 C 0 -97.425781 0.765625 -99.441406 2.296875 -101.109375 C 3.828125 -102.773438 5.769531 -103.609375 8.125 -103.609375 C 10.351562 -103.609375 12.125 -102.804688 13.4375 -101.203125 C 14.757812 -99.609375 15.421875 -97.5625 15.421875 -95.0625 L 15.421875 -8.546875 C 15.421875 -6.179688 14.691406 -4.164062 13.234375 -2.5 C 11.773438 -0.832031 9.9375 0 7.71875 0 Z M 7.71875 0 "/></g></g></g><g fill="#28a745" fill-opacity="1"><g transform="translate(289.20363, 603.650878)"><g><path d="M 63.171875 -0.203125 C 55.796875 -0.898438 49.050781 -3.332031 42.9375 -7.5 C 36.820312 -11.675781 31.957031 -17.0625 28.34375 -23.65625 C 24.738281 -30.257812 22.9375 -37.316406 22.9375 -44.828125 L 22.9375 -90.265625 L 8.546875 -90.265625 C 6.179688 -90.265625 4.164062 -91.097656 2.5 -92.765625 C 0.832031 -94.429688 0 -96.445312 0 -98.8125 C 0 -100.625 0.832031 -102.1875 2.5 -103.5 C 4.164062 -104.820312 6.179688 -105.484375 8.546875 -105.484375 L 22.9375 -105.484375 L 22.9375 -119.875 C 22.9375 -122.226562 23.769531 -124.238281 25.4375 -125.90625 C 27.101562 -127.582031 29.117188 -128.421875 31.484375 -128.421875 C 33.421875 -128.421875 35.050781 -127.582031 36.375 -125.90625 C 37.695312 -124.238281 38.359375 -122.226562 38.359375 -119.875 L 38.359375 -105.484375 L 52.75 -105.484375 C 55.101562 -105.484375 57.113281 -104.648438 58.78125 -102.984375 C 60.457031 -101.316406 61.296875 -99.300781 61.296875 -96.9375 C 61.296875 -95.132812 60.457031 -93.570312 58.78125 -92.25 C 57.113281 -90.925781 55.101562 -90.265625 52.75 -90.265625 L 38.359375 -90.265625 L 38.359375 -44.828125 C 38.359375 -37.453125 40.753906 -31.019531 45.546875 -25.53125 C 50.347656 -20.039062 56.359375 -16.742188 63.578125 -15.640625 C 65.941406 -15.359375 67.890625 -14.519531 69.421875 -13.125 C 70.953125 -11.738281 71.71875 -9.863281 71.71875 -7.5 C 71.71875 -5.414062 70.914062 -3.644531 69.3125 -2.1875 C 67.71875 -0.726562 65.671875 -0.0664062 63.171875 -0.203125 Z M 63.171875 -0.203125 "/></g></g></g><g fill="#28a745" fill-opacity="1"><g transform="translate(402.604443, 603.650878)"><g><path d="M 53.78125 5.625 C 44.195312 5.625 35.269531 3.191406 27 -1.671875 C 18.726562 -6.535156 12.160156 -13.097656 7.296875 -21.359375 C 2.429688 -29.628906 0 -38.5625 0 -48.15625 C 0 -57.75 2.429688 -66.675781 7.296875 -74.9375 C 12.160156 -83.207031 18.726562 -89.773438 27 -94.640625 C 35.269531 -99.503906 44.195312 -101.9375 53.78125 -101.9375 C 63.375 -101.9375 72.304688 -99.503906 80.578125 -94.640625 C 88.847656 -89.773438 95.410156 -83.207031 100.265625 -74.9375 C 105.128906 -66.675781 107.5625 -57.75 107.5625 -48.15625 C 107.5625 -45.65625 106.832031 -43.742188 105.375 -42.421875 C 103.914062 -41.097656 102.078125 -40.4375 99.859375 -40.4375 L 16.046875 -40.4375 C 17.859375 -31.539062 22.304688 -24.207031 29.390625 -18.4375 C 36.484375 -12.675781 44.613281 -9.796875 53.78125 -9.796875 C 63.65625 -9.796875 72.34375 -13.203125 79.84375 -20.015625 C 82.0625 -22.234375 84.425781 -23.34375 86.9375 -23.34375 C 88.738281 -23.34375 90.195312 -22.789062 91.3125 -21.6875 C 93.113281 -19.875 94.015625 -17.859375 94.015625 -15.640625 C 94.015625 -13.554688 93.25 -11.75 91.71875 -10.21875 C 86.71875 -5.207031 80.953125 -1.316406 74.421875 1.453125 C 67.890625 4.234375 61.007812 5.625 53.78125 5.625 Z M 91.3125 -55.875 C 89.5 -64.769531 85.082031 -72.097656 78.0625 -77.859375 C 71.050781 -83.628906 62.957031 -86.515625 53.78125 -86.515625 C 44.75 -86.515625 36.6875 -83.628906 29.59375 -77.859375 C 22.507812 -72.097656 17.992188 -64.769531 16.046875 -55.875 Z M 91.3125 -55.875 "/></g></g></g><g fill="#28a745" fill-opacity="1"><g transform="translate(551.859903, 603.650878)"><g><path d="M 7.71875 0 C 5.488281 0 3.644531 -0.832031 2.1875 -2.5 C 0.726562 -4.164062 0 -6.179688 0 -8.546875 L 0 -60.671875 C 0 -68.171875 1.804688 -75.21875 5.421875 -81.8125 C 9.035156 -88.414062 13.898438 -93.800781 20.015625 -97.96875 C 26.128906 -102.144531 32.867188 -104.582031 40.234375 -105.28125 C 42.734375 -105.414062 44.78125 -104.648438 46.375 -102.984375 C 47.976562 -101.316406 48.78125 -99.234375 48.78125 -96.734375 C 48.78125 -94.785156 48.015625 -93.21875 46.484375 -92.03125 C 44.960938 -90.851562 43.019531 -90.125 40.65625 -89.84375 C 33.425781 -88.738281 27.410156 -85.441406 22.609375 -79.953125 C 17.816406 -74.460938 15.421875 -68.035156 15.421875 -60.671875 L 15.421875 -8.546875 C 15.421875 -6.179688 14.691406 -4.164062 13.234375 -2.5 C 11.773438 -0.832031 9.9375 0 7.71875 0 Z M 7.71875 0 "/></g></g></g><g fill="#28a745" fill-opacity="1"><g transform="translate(642.330375, 603.650878)"><g><path d="M 53.78125 5.625 C 44.195312 5.625 35.269531 3.191406 27 -1.671875 C 18.726562 -6.535156 12.160156 -13.097656 7.296875 -21.359375 C 2.429688 -29.628906 0 -38.5625 0 -48.15625 C 0 -57.75 2.429688 -66.675781 7.296875 -74.9375 C 12.160156 -83.207031 18.726562 -89.773438 27 -94.640625 C 35.269531 -99.503906 44.195312 -101.9375 53.78125 -101.9375 C 63.375 -101.9375 72.304688 -99.503906 80.578125 -94.640625 C 88.847656 -89.773438 95.410156 -83.207031 100.265625 -74.9375 C 105.128906 -66.675781 107.5625 -57.75 107.5625 -48.15625 L 107.5625 -6.46875 C 107.5625 -3.957031 106.796875 -1.972656 105.265625 -0.515625 C 103.742188 0.941406 101.941406 1.671875 99.859375 1.671875 C 97.773438 1.671875 95.96875 0.941406 94.4375 -0.515625 C 92.90625 -1.972656 92.140625 -3.957031 92.140625 -6.46875 L 92.140625 -10.625 C 87.140625 -5.488281 81.300781 -1.5 74.625 1.34375 C 67.957031 4.195312 61.007812 5.625 53.78125 5.625 Z M 53.78125 -9.796875 C 60.726562 -9.796875 67.15625 -11.5 73.0625 -14.90625 C 78.96875 -18.3125 83.625 -22.96875 87.03125 -28.875 C 90.4375 -34.78125 92.140625 -41.207031 92.140625 -48.15625 C 92.140625 -55.101562 90.4375 -61.53125 87.03125 -67.4375 C 83.625 -73.34375 78.96875 -78 73.0625 -81.40625 C 67.15625 -84.8125 60.726562 -86.515625 53.78125 -86.515625 C 46.832031 -86.515625 40.40625 -84.8125 34.5 -81.40625 C 28.59375 -78 23.898438 -73.34375 20.421875 -67.4375 C 16.953125 -61.53125 15.21875 -55.101562 15.21875 -48.15625 C 15.21875 -41.207031 16.953125 -34.78125 20.421875 -28.875 C 23.898438 -22.96875 28.59375 -18.3125 34.5 -14.90625 C 40.40625 -11.5 46.832031 -9.796875 53.78125 -9.796875 Z M 53.78125 -9.796875 "/></g></g></g><g fill="#2c2c2c" fill-opacity="1"><g transform="translate(791.590574, 603.650878)"><g><path d="M 8.546875 0 C 6.179688 0 4.164062 -0.832031 2.5 -2.5 C 0.832031 -4.164062 0 -6.179688 0 -8.546875 L 0 -145.71875 C 0 -148.082031 0.832031 -150.097656 2.5 -151.765625 C 4.164062 -153.429688 6.179688 -154.265625 8.546875 -154.265625 L 59.40625 -154.265625 C 66.78125 -154.265625 73.59375 -152.390625 79.84375 -148.640625 C 86.09375 -144.890625 91.09375 -139.882812 94.84375 -133.625 C 98.601562 -127.375 100.484375 -120.566406 100.484375 -113.203125 C 100.484375 -106.941406 99.09375 -101.03125 96.3125 -95.46875 C 93.53125 -89.914062 89.707031 -85.191406 84.84375 -81.296875 C 91.519531 -77.410156 96.835938 -72.097656 100.796875 -65.359375 C 104.753906 -58.617188 106.734375 -51.351562 106.734375 -43.5625 C 106.734375 -35.78125 104.753906 -28.550781 100.796875 -21.875 C 96.835938 -15.207031 91.519531 -9.894531 84.84375 -5.9375 C 78.175781 -1.976562 70.953125 0 63.171875 0 Z M 59.203125 -87.140625 C 63.785156 -87.140625 68.054688 -88.320312 72.015625 -90.6875 C 75.984375 -93.050781 79.148438 -96.210938 81.515625 -100.171875 C 83.878906 -104.128906 85.0625 -108.472656 85.0625 -113.203125 C 85.0625 -120.285156 82.554688 -126.328125 77.546875 -131.328125 C 72.546875 -136.335938 66.429688 -138.84375 59.203125 -138.84375 L 15.21875 -138.84375 L 15.21875 -87.140625 Z M 63.578125 -15.421875 C 68.722656 -15.421875 73.484375 -16.671875 77.859375 -19.171875 C 82.242188 -21.679688 85.6875 -25.085938 88.1875 -29.390625 C 90.6875 -33.703125 91.9375 -38.425781 91.9375 -43.5625 C 91.9375 -48.707031 90.648438 -53.46875 88.078125 -57.84375 C 85.503906 -62.226562 82.0625 -65.703125 77.75 -68.265625 C 73.445312 -70.835938 68.722656 -72.125 63.578125 -72.125 L 15.21875 -72.125 L 15.21875 -15.421875 Z M 63.578125 -15.421875 "/></g></g></g><g fill="#2c2c2c" fill-opacity="1"><g transform="translate(940.012202, 603.650878)"><g><path d="M 53.78125 5 C 44.195312 5 35.269531 2.566406 27 -2.296875 C 18.726562 -7.160156 12.160156 -13.722656 7.296875 -21.984375 C 2.429688 -30.253906 0 -39.1875 0 -48.78125 L 0 -92.5625 C 0 -94.925781 0.726562 -96.941406 2.1875 -98.609375 C 3.644531 -100.273438 5.488281 -101.109375 7.71875 -101.109375 C 9.9375 -101.109375 11.773438 -100.273438 13.234375 -98.609375 C 14.691406 -96.941406 15.421875 -94.925781 15.421875 -92.5625 L 15.421875 -48.78125 C 15.421875 -41.832031 17.125 -35.40625 20.53125 -29.5 C 23.9375 -23.59375 28.59375 -18.9375 34.5 -15.53125 C 40.40625 -12.125 46.832031 -10.421875 53.78125 -10.421875 C 60.726562 -10.421875 67.15625 -12.125 73.0625 -15.53125 C 78.96875 -18.9375 83.660156 -23.59375 87.140625 -29.5 C 90.617188 -35.40625 92.359375 -41.832031 92.359375 -48.78125 L 92.359375 -92.5625 C 92.359375 -94.925781 93.085938 -96.941406 94.546875 -98.609375 C 96.003906 -100.273438 97.84375 -101.109375 100.0625 -101.109375 C 102.289062 -101.109375 104.097656 -100.273438 105.484375 -98.609375 C 106.867188 -96.941406 107.5625 -94.925781 107.5625 -92.5625 L 107.5625 -48.78125 C 107.5625 -39.1875 105.128906 -30.253906 100.265625 -21.984375 C 95.410156 -13.722656 88.847656 -7.160156 80.578125 -2.296875 C 72.304688 2.566406 63.375 5 53.78125 5 Z M 53.78125 5 "/></g></g></g><g fill="#2c2c2c" fill-opacity="1"><g transform="translate(1089.267661, 603.650878)"><g><path d="M 38.359375 3.75 C 27.796875 3.75 19.070312 1.144531 12.1875 -4.0625 C 5.3125 -9.269531 1.316406 -16.253906 0.203125 -25.015625 C -0.0664062 -27.378906 0.628906 -29.359375 2.296875 -30.953125 C 3.960938 -32.554688 6.046875 -33.359375 8.546875 -33.359375 C 10.492188 -33.359375 12.09375 -32.628906 13.34375 -31.171875 C 14.59375 -29.710938 15.359375 -27.726562 15.640625 -25.21875 C 16.472656 -20.632812 18.765625 -17.226562 22.515625 -15 C 26.265625 -12.78125 31.613281 -11.671875 38.5625 -11.671875 C 46.625 -11.671875 52.425781 -13.0625 55.96875 -15.84375 C 59.519531 -18.625 61.296875 -23.070312 61.296875 -29.1875 C 61.296875 -32.519531 60.425781 -35.125 58.6875 -37 C 56.945312 -38.875 54.722656 -40.226562 52.015625 -41.0625 C 49.304688 -41.894531 45.585938 -42.726562 40.859375 -43.5625 C 33.910156 -44.820312 28.210938 -46.316406 23.765625 -48.046875 C 19.316406 -49.785156 15.492188 -53.050781 12.296875 -57.84375 C 9.097656 -62.644531 7.5 -69.492188 7.5 -78.390625 C 7.5 -86.304688 10.347656 -92.726562 16.046875 -97.65625 C 21.742188 -102.59375 29.113281 -105.0625 38.15625 -105.0625 C 46.070312 -105.0625 52.773438 -102.976562 58.265625 -98.8125 C 63.753906 -94.644531 67.054688 -89.222656 68.171875 -82.546875 C 68.453125 -80.191406 67.753906 -78.210938 66.078125 -76.609375 C 64.410156 -75.015625 62.328125 -74.21875 59.828125 -74.21875 C 57.878906 -74.21875 56.382812 -74.84375 55.34375 -76.09375 C 54.300781 -77.34375 53.4375 -79.148438 52.75 -81.515625 C 51.351562 -86.929688 46.488281 -89.640625 38.15625 -89.640625 C 33.007812 -89.640625 29.113281 -88.664062 26.46875 -86.71875 C 23.832031 -84.769531 22.515625 -81.992188 22.515625 -78.390625 C 22.515625 -74.210938 23.488281 -70.976562 25.4375 -68.6875 C 27.382812 -66.394531 29.847656 -64.796875 32.828125 -63.890625 C 35.816406 -62.992188 39.953125 -62.054688 45.234375 -61.078125 C 52.179688 -59.691406 57.703125 -58.195312 61.796875 -56.59375 C 65.898438 -55 69.445312 -52.046875 72.4375 -47.734375 C 75.425781 -43.429688 76.921875 -37.25 76.921875 -29.1875 C 76.921875 -18.90625 73.515625 -10.84375 66.703125 -5 C 59.898438 0.832031 50.453125 3.75 38.359375 3.75 Z M 38.359375 3.75 "/></g></g></g></svg>