<svg xmlns="http://www.w3.org/2000/svg" xmlns:xlink="http://www.w3.org/1999/xlink" width="1920" zoomAndPan="magnify" viewBox="0 0 1440 809.999993" height="1080" preserveAspectRatio="xMidYMid meet" version="1.0"><defs><g/></defs><g fill="#28a745" fill-opacity="1"><g transform="translate(233.184354, 482.249996)"><g><path d="M 7.703125 -118.5625 C 5.484375 -118.5625 3.644531 -119.285156 2.1875 -120.734375 C 0.726562 -122.191406 0 -124.03125 0 -126.25 C 0 -128.46875 0.726562 -130.269531 2.1875 -131.65625 C 3.644531 -133.050781 5.484375 -133.75 7.703125 -133.75 C 9.921875 -133.75 11.722656 -133.050781 13.109375 -131.65625 C 14.492188 -130.269531 15.1875 -128.46875 15.1875 -126.25 C 15.1875 -124.03125 14.457031 -122.191406 13 -120.734375 C 11.539062 -119.285156 9.773438 -118.5625 7.703125 -118.5625 Z M 7.703125 0 C 5.484375 0 3.644531 -0.828125 2.1875 -2.484375 C 0.726562 -4.148438 0 -6.164062 0 -8.53125 L 0 -94.84375 C 0 -97.207031 0.757812 -99.21875 2.28125 -100.875 C 3.8125 -102.539062 5.753906 -103.375 8.109375 -103.375 C 10.328125 -103.375 12.09375 -102.578125 13.40625 -100.984375 C 14.726562 -99.390625 15.390625 -97.34375 15.390625 -94.84375 L 15.390625 -8.53125 C 15.390625 -6.164062 14.660156 -4.148438 13.203125 -2.484375 C 11.753906 -0.828125 9.921875 0 7.703125 0 Z M 7.703125 0 "/></g></g></g><g fill="#28a745" fill-opacity="1"><g transform="translate(290.175551, 482.249996)"><g><path d="M 63.03125 -0.203125 C 55.675781 -0.898438 48.945312 -3.328125 42.84375 -7.484375 C 36.75 -11.648438 31.894531 -17.023438 28.28125 -23.609375 C 24.675781 -30.191406 22.875 -37.226562 22.875 -44.71875 L 22.875 -90.0625 L 8.53125 -90.0625 C 6.164062 -90.0625 4.148438 -90.894531 2.484375 -92.5625 C 0.828125 -94.226562 0 -96.238281 0 -98.59375 C 0 -100.394531 0.828125 -101.953125 2.484375 -103.265625 C 4.148438 -104.585938 6.164062 -105.25 8.53125 -105.25 L 22.875 -105.25 L 22.875 -119.59375 C 22.875 -121.957031 23.707031 -123.96875 25.375 -125.625 C 27.039062 -127.289062 29.050781 -128.125 31.40625 -128.125 C 33.34375 -128.125 34.96875 -127.289062 36.28125 -125.625 C 37.601562 -123.96875 38.265625 -121.957031 38.265625 -119.59375 L 38.265625 -105.25 L 52.625 -105.25 C 54.976562 -105.25 56.988281 -104.414062 58.65625 -102.75 C 60.320312 -101.082031 61.15625 -99.070312 61.15625 -96.71875 C 61.15625 -94.914062 60.320312 -93.351562 58.65625 -92.03125 C 56.988281 -90.71875 54.976562 -90.0625 52.625 -90.0625 L 38.265625 -90.0625 L 38.265625 -44.71875 C 38.265625 -37.375 40.65625 -30.960938 45.4375 -25.484375 C 50.226562 -20.003906 56.226562 -16.707031 63.4375 -15.59375 C 65.789062 -15.320312 67.726562 -14.492188 69.25 -13.109375 C 70.78125 -11.722656 71.546875 -9.847656 71.546875 -7.484375 C 71.546875 -5.410156 70.75 -3.644531 69.15625 -2.1875 C 67.5625 -0.726562 65.519531 -0.0664062 63.03125 -0.203125 Z M 63.03125 -0.203125 "/></g></g></g><g fill="#28a745" fill-opacity="1"><g transform="translate(403.326016, 482.249996)"><g><path d="M 53.65625 5.609375 C 44.09375 5.609375 35.1875 3.1875 26.9375 -1.65625 C 18.6875 -6.507812 12.132812 -13.0625 7.28125 -21.3125 C 2.425781 -29.570312 0 -38.484375 0 -48.046875 C 0 -57.617188 2.425781 -66.53125 7.28125 -74.78125 C 12.132812 -83.03125 18.6875 -89.582031 26.9375 -94.4375 C 35.1875 -99.289062 44.09375 -101.71875 53.65625 -101.71875 C 63.226562 -101.71875 72.140625 -99.289062 80.390625 -94.4375 C 88.640625 -89.582031 95.191406 -83.03125 100.046875 -74.78125 C 104.898438 -66.53125 107.328125 -57.617188 107.328125 -48.046875 C 107.328125 -45.546875 106.597656 -43.640625 105.140625 -42.328125 C 103.679688 -41.015625 101.84375 -40.359375 99.625 -40.359375 L 16.015625 -40.359375 C 17.816406 -31.484375 22.253906 -24.164062 29.328125 -18.40625 C 36.398438 -12.65625 44.507812 -9.78125 53.65625 -9.78125 C 63.507812 -9.78125 72.175781 -13.175781 79.65625 -19.96875 C 81.875 -22.1875 84.234375 -23.296875 86.734375 -23.296875 C 88.535156 -23.296875 89.992188 -22.738281 91.109375 -21.625 C 92.910156 -19.820312 93.8125 -17.8125 93.8125 -15.59375 C 93.8125 -13.519531 93.046875 -11.71875 91.515625 -10.1875 C 86.523438 -5.195312 80.769531 -1.316406 74.25 1.453125 C 67.738281 4.222656 60.875 5.609375 53.65625 5.609375 Z M 91.109375 -55.75 C 89.304688 -64.625 84.898438 -71.9375 77.890625 -77.6875 C 70.890625 -83.4375 62.8125 -86.3125 53.65625 -86.3125 C 44.644531 -86.3125 36.601562 -83.4375 29.53125 -77.6875 C 22.457031 -71.9375 17.953125 -64.625 16.015625 -55.75 Z M 91.109375 -55.75 "/></g></g></g><g fill="#28a745" fill-opacity="1"><g transform="translate(552.251978, 482.249996)"><g><path d="M 7.703125 0 C 5.484375 0 3.644531 -0.828125 2.1875 -2.484375 C 0.726562 -4.148438 0 -6.164062 0 -8.53125 L 0 -60.53125 C 0 -68.019531 1.800781 -75.054688 5.40625 -81.640625 C 9.007812 -88.222656 13.863281 -93.59375 19.96875 -97.75 C 26.070312 -101.914062 32.796875 -104.347656 40.140625 -105.046875 C 42.640625 -105.179688 44.6875 -104.414062 46.28125 -102.75 C 47.875 -101.082031 48.671875 -99.003906 48.671875 -96.515625 C 48.671875 -94.566406 47.90625 -93.003906 46.375 -91.828125 C 44.851562 -90.648438 42.914062 -89.921875 40.5625 -89.640625 C 33.351562 -88.535156 27.351562 -85.242188 22.5625 -79.765625 C 17.78125 -74.285156 15.390625 -67.875 15.390625 -60.53125 L 15.390625 -8.53125 C 15.390625 -6.164062 14.660156 -4.148438 13.203125 -2.484375 C 11.753906 -0.828125 9.921875 0 7.703125 0 Z M 7.703125 0 "/></g></g></g><g fill="#28a745" fill-opacity="1"><g transform="translate(642.522741, 482.249996)"><g><path d="M 53.65625 5.609375 C 44.09375 5.609375 35.1875 3.1875 26.9375 -1.65625 C 18.6875 -6.507812 12.132812 -13.0625 7.28125 -21.3125 C 2.425781 -29.570312 0 -38.484375 0 -48.046875 C 0 -57.617188 2.425781 -66.53125 7.28125 -74.78125 C 12.132812 -83.03125 18.6875 -89.582031 26.9375 -94.4375 C 35.1875 -99.289062 44.09375 -101.71875 53.65625 -101.71875 C 63.226562 -101.71875 72.140625 -99.289062 80.390625 -94.4375 C 88.640625 -89.582031 95.191406 -83.03125 100.046875 -74.78125 C 104.898438 -66.53125 107.328125 -57.617188 107.328125 -48.046875 L 107.328125 -6.453125 C 107.328125 -3.953125 106.5625 -1.972656 105.03125 -0.515625 C 103.507812 0.929688 101.707031 1.65625 99.625 1.65625 C 97.550781 1.65625 95.75 0.929688 94.21875 -0.515625 C 92.695312 -1.972656 91.9375 -3.953125 91.9375 -6.453125 L 91.9375 -10.609375 C 86.945312 -5.472656 81.125 -1.488281 74.46875 1.34375 C 67.8125 4.1875 60.875 5.609375 53.65625 5.609375 Z M 53.65625 -9.78125 C 60.59375 -9.78125 67.007812 -11.476562 72.90625 -14.875 C 78.800781 -18.269531 83.445312 -22.910156 86.84375 -28.796875 C 90.238281 -34.691406 91.9375 -41.109375 91.9375 -48.046875 C 91.9375 -54.984375 90.238281 -61.394531 86.84375 -67.28125 C 83.445312 -73.175781 78.800781 -77.820312 72.90625 -81.21875 C 67.007812 -84.613281 60.59375 -86.3125 53.65625 -86.3125 C 46.726562 -86.3125 40.316406 -84.613281 34.421875 -81.21875 C 28.523438 -77.820312 23.84375 -73.175781 20.375 -67.28125 C 16.914062 -61.394531 15.1875 -54.984375 15.1875 -48.046875 C 15.1875 -41.109375 16.914062 -34.691406 20.375 -28.796875 C 23.84375 -22.910156 28.523438 -18.269531 34.421875 -14.875 C 40.316406 -11.476562 46.726562 -9.78125 53.65625 -9.78125 Z M 53.65625 -9.78125 "/></g></g></g><g fill="#2c2c2c" fill-opacity="1"><g transform="translate(791.453861, 482.249996)"><g><path d="M 8.53125 0 C 6.164062 0 4.148438 -0.828125 2.484375 -2.484375 C 0.828125 -4.148438 0 -6.164062 0 -8.53125 L 0 -145.390625 C 0 -147.742188 0.828125 -149.753906 2.484375 -151.421875 C 4.148438 -153.085938 6.164062 -153.921875 8.53125 -153.921875 L 59.28125 -153.921875 C 66.625 -153.921875 73.414062 -152.046875 79.65625 -148.296875 C 85.90625 -144.554688 90.898438 -139.566406 94.640625 -133.328125 C 98.378906 -127.085938 100.25 -120.289062 100.25 -112.9375 C 100.25 -106.695312 98.863281 -100.800781 96.09375 -95.25 C 93.320312 -89.707031 89.507812 -85 84.65625 -81.125 C 91.3125 -77.238281 96.613281 -71.929688 100.5625 -65.203125 C 104.519531 -58.484375 106.5 -51.238281 106.5 -43.46875 C 106.5 -35.707031 104.519531 -28.5 100.5625 -21.84375 C 96.613281 -15.1875 91.3125 -9.878906 84.65625 -5.921875 C 78 -1.972656 70.789062 0 63.03125 0 Z M 59.078125 -86.9375 C 63.648438 -86.9375 67.910156 -88.113281 71.859375 -90.46875 C 75.816406 -92.832031 78.972656 -95.988281 81.328125 -99.9375 C 83.679688 -103.894531 84.859375 -108.226562 84.859375 -112.9375 C 84.859375 -120.007812 82.363281 -126.039062 77.375 -131.03125 C 72.382812 -136.03125 66.285156 -138.53125 59.078125 -138.53125 L 15.1875 -138.53125 L 15.1875 -86.9375 Z M 63.4375 -15.390625 C 68.570312 -15.390625 73.320312 -16.632812 77.6875 -19.125 C 82.050781 -21.625 85.484375 -25.023438 87.984375 -29.328125 C 90.484375 -33.628906 91.734375 -38.34375 91.734375 -43.46875 C 91.734375 -48.601562 90.445312 -53.351562 87.875 -57.71875 C 85.3125 -62.082031 81.878906 -65.546875 77.578125 -68.109375 C 73.285156 -70.679688 68.570312 -71.96875 63.4375 -71.96875 L 15.1875 -71.96875 L 15.1875 -15.390625 Z M 63.4375 -15.390625 "/></g></g></g><g fill="#2c2c2c" fill-opacity="1"><g transform="translate(939.547796, 482.249996)"><g><path d="M 53.65625 4.984375 C 44.09375 4.984375 35.1875 2.5625 26.9375 -2.28125 C 18.6875 -7.132812 12.132812 -13.6875 7.28125 -21.9375 C 2.425781 -30.1875 0 -39.097656 0 -48.671875 L 0 -92.359375 C 0 -94.710938 0.726562 -96.71875 2.1875 -98.375 C 3.644531 -100.039062 5.484375 -100.875 7.703125 -100.875 C 9.921875 -100.875 11.753906 -100.039062 13.203125 -98.375 C 14.660156 -96.71875 15.390625 -94.710938 15.390625 -92.359375 L 15.390625 -48.671875 C 15.390625 -41.734375 17.085938 -35.316406 20.484375 -29.421875 C 23.878906 -23.535156 28.523438 -18.894531 34.421875 -15.5 C 40.316406 -12.101562 46.726562 -10.40625 53.65625 -10.40625 C 60.59375 -10.40625 67.007812 -12.101562 72.90625 -15.5 C 78.800781 -18.894531 83.476562 -23.535156 86.9375 -29.421875 C 90.40625 -35.316406 92.140625 -41.734375 92.140625 -48.671875 L 92.140625 -92.359375 C 92.140625 -94.710938 92.867188 -96.71875 94.328125 -98.375 C 95.785156 -100.039062 97.625 -100.875 99.84375 -100.875 C 102.0625 -100.875 103.863281 -100.039062 105.25 -98.375 C 106.632812 -96.71875 107.328125 -94.710938 107.328125 -92.359375 L 107.328125 -48.671875 C 107.328125 -39.097656 104.898438 -30.1875 100.046875 -21.9375 C 95.191406 -13.6875 88.640625 -7.132812 80.390625 -2.28125 C 72.140625 2.5625 63.226562 4.984375 53.65625 4.984375 Z M 53.65625 4.984375 "/></g></g></g><g fill="#2c2c2c" fill-opacity="1"><g transform="translate(1088.473759, 482.249996)"><g><path d="M 38.265625 3.75 C 27.734375 3.75 19.035156 1.148438 12.171875 -4.046875 C 5.304688 -9.253906 1.316406 -16.222656 0.203125 -24.953125 C -0.0664062 -27.316406 0.625 -29.296875 2.28125 -30.890625 C 3.945312 -32.484375 6.03125 -33.28125 8.53125 -33.28125 C 10.46875 -33.28125 12.0625 -32.550781 13.3125 -31.09375 C 14.5625 -29.632812 15.320312 -27.660156 15.59375 -25.171875 C 16.425781 -20.585938 18.710938 -17.1875 22.453125 -14.96875 C 26.203125 -12.75 31.546875 -11.640625 38.484375 -11.640625 C 46.523438 -11.640625 52.3125 -13.023438 55.84375 -15.796875 C 59.382812 -18.578125 61.15625 -23.019531 61.15625 -29.125 C 61.15625 -32.445312 60.285156 -35.046875 58.546875 -36.921875 C 56.816406 -38.796875 54.597656 -40.144531 51.890625 -40.96875 C 49.191406 -41.800781 45.484375 -42.632812 40.765625 -43.46875 C 33.835938 -44.71875 28.15625 -46.207031 23.71875 -47.9375 C 19.28125 -49.675781 15.460938 -52.9375 12.265625 -57.71875 C 9.078125 -62.5 7.484375 -69.328125 7.484375 -78.203125 C 7.484375 -86.109375 10.328125 -92.519531 16.015625 -97.4375 C 21.703125 -102.363281 29.050781 -104.828125 38.0625 -104.828125 C 45.96875 -104.828125 52.660156 -102.75 58.140625 -98.59375 C 63.617188 -94.4375 66.910156 -89.03125 68.015625 -82.375 C 68.296875 -80.007812 67.601562 -78.03125 65.9375 -76.4375 C 64.269531 -74.84375 62.191406 -74.046875 59.703125 -74.046875 C 57.753906 -74.046875 56.257812 -74.671875 55.21875 -75.921875 C 54.175781 -77.171875 53.3125 -78.972656 52.625 -81.328125 C 51.238281 -86.734375 46.382812 -89.4375 38.0625 -89.4375 C 32.9375 -89.4375 29.054688 -88.460938 26.421875 -86.515625 C 23.785156 -84.578125 22.46875 -81.804688 22.46875 -78.203125 C 22.46875 -74.046875 23.4375 -70.820312 25.375 -68.53125 C 27.3125 -66.25 29.769531 -64.65625 32.75 -63.75 C 35.738281 -62.851562 39.867188 -61.914062 45.140625 -60.9375 C 52.066406 -59.550781 57.578125 -58.0625 61.671875 -56.46875 C 65.765625 -54.875 69.300781 -51.925781 72.28125 -47.625 C 75.257812 -43.332031 76.75 -37.164062 76.75 -29.125 C 76.75 -18.863281 73.351562 -10.816406 66.5625 -4.984375 C 59.769531 0.835938 50.335938 3.75 38.265625 3.75 Z M 38.265625 3.75 "/></g></g></g></svg>